# xmcd
#
# Track frame offsets:
#	150
#	16527
#	32698
#	51246
#	62073
#	79537
#	98184
#	113040
#	131142
#	148146
#	164650
#	178226
#	196623
#	212500
#	229064
#	256769
#	275321
#	290025
#	307458
#
# Disc length: 4331 seconds
#
# Revision: 1
# Processed by: cddbd v1.5.1PL0 Copyright (c) Steve Scherf et al.
# Submitted via: audiograbber 1.82.02
#
DISCID=1410e913
DTITLE=Various Artist - Top Tunes 228 Country
DYEAR=1900
DGENRE=Karaoke
TTITLE0=George Strait - As far as it goes
TTITLE1=Chris Cagle - Chicks dig it
TTITLE2=George Strait - Desperately
TTITLE3=Tracy Byrd - Drinkin' Bone
TTITLE4=Craig Morgan - Every Friday afternoon
TTITLE5=Jessica Andrews - Good time
TTITLE6=Toby Keith and Scotty Emerick - I can't take you anywhere
TTITLE7=Toby Keith - I love this bar
TTITLE8=Jo Dee Messina - I wish
TTITLE9=Patty Loveless - Lovin' all night
TTITLE10=Randy Travis - Prayin' for the fish
TTITLE11=Ryan Tyler - Run, run, run
TTITLE12=Dusty Drake - Smaller Pieces
TTITLE13=Tim McGraw - That's why God made Mexico
TTITLE14=Dixie Chicks - Top of the world
TTITLE15=Lonestar - Walking in Memphis
TTITLE16=Jeff Bates - Wanna make you cry
TTITLE17=Diamond Rio - Wrinkles
TTITLE18=Montgomery Gentry - Hell yeah
EXTD=
EXTT0=
EXTT1=
EXTT2=
EXTT3=
EXTT4=
EXTT5=
EXTT6=
EXTT7=
EXTT8=
EXTT9=
EXTT10=
EXTT11=
EXTT12=
EXTT13=
EXTT14=
EXTT15=
EXTT16=
EXTT17=
EXTT18=
PLAYORDER=
